<svg xmlns="http://www.w3.org/2000/svg" viewBox="0 0 600 560">
  <g fill="none" fill-rule="evenodd">
    <g fill-rule="nonzero">
      <path fill="#323232" stroke="#0B0C0C" stroke-width="6" d="M30 80h198v163H30z"/>
      <path fill="#B1B4B6" d="M75.6 110 55.3 98.4c-.4-.2-.8-.4-1.2-.4a2 2 0 0 0-2 2c0 .9.5 1.6 1.3 2l15.8 9-16 9.1a2 2 0 0 0-1.2 2c0 1 .9 1.9 2 1.9.4 0 .9-.2 1.2-.4l20.3-11.7c.5-.3.6-1 .4-1.5 0-.2-.2-.3-.3-.4Zm30.8 24.5c-.5-.4-1.1-.6-1.7-.5H79.2c-.6 0-1.2.1-1.6.5-.8.7-.8 2 0 2.9.5.5 1 .7 1.6.6h25.5c.6 0 1.2-.1 1.7-.5a2 2 0 0 0 0-3Z"/>
    </g>
    <path fill="#1E1E1E" fill-rule="nonzero" d="M133.4 448.8V207c0-5.4 3.6-9 9-9h334c5.6 0 9.1 3.5 9.1 9v242"/>
    <path fill="#EDEDED" fill-rule="nonzero" d="M486 448.8h-1V207c0-5-3.5-8.5-8.5-8.5h-334c-5 0-8.5 3.5-8.5 8.5v241.8h-1V207c0-5.5 4-9.5 9.5-9.5h334c5.5 0 9.5 4 9.5 9.5v241.8Z"/>
    <path fill="#64ACC3" fill-rule="nonzero" d="M143.4 204h332a4 4 0 0 1 4 4v225.5h-340V208a4 4 0 0 1 4-4Z"/>
    <path fill="#0B0C0C" fill-rule="nonzero" d="M480 434H139V207.5a4 4 0 0 1 4-4h333a4 4 0 0 1 4 4V434Zm-340-1h339V207.5a3 3 0 0 0-3-3H143a3 3 0 0 0-3 3V433Z"/>
    <path fill="#808283" fill-rule="nonzero" d="M270 439.5h79v14h-79z"/>
    <path fill="#B1B4B6" fill-rule="nonzero" d="M341 448h-64c-3.8 0-7-4.1-7.3-8H81v16a8 8 0 0 0 8 8h440a8 8 0 0 0 8-8l-.1-16H348.3c-.3 4.1-3.4 8-7.3 8Z"/>
    <path fill="#A5A9AB" fill-rule="nonzero" d="M81 454v2a8 8 0 0 0 8 8h440a8 8 0 0 0 8-8l-.1-2a8.5 8.5 0 0 1-5.5 2H87c-2.1 0-4.2-.7-5.9-2Z"/>
    <path stroke="#EDEDED" d="M537 440H348.4c-.2 4.1-3.3 8-7.3 8H277c-3.8 0-7-4.1-7.3-8H81"/>
    <path fill="#1A345C" fill-rule="nonzero" d="M106 466h406l20 4H86z"/>
    <path fill="#505A5F" fill-rule="nonzero" d="m108.4 464 5.7 3h38.6l5.7-3zm352 0 5.7 3h38.6l5.7-3z"/>
    <path fill="#FFF" fill-rule="nonzero" stroke="#0B0C0C" stroke-width="2" d="M180 235h258v168H180z"/>
    <path fill="#B1B4B6" d="M197 277h142v9H197z"/>
    <path fill="#F3F2F1" fill-rule="nonzero" d="M197 370h79v20h-79v-20Zm0-74h120v64H197v-64Zm-16-60h256v28H181v-28Z"/>
    <g fill-rule="nonzero">
      <path fill="#0B0C0C" d="M150 225h258v28H150z"/>
      <path fill="#FFF" d="M168.6 242.4c.8 1 2 1.5 3.3 1.5 1.4 0 2.6-.7 2.6-2.1 0-.7-.4-1.4-1.1-1.6-1.1-.5-3-.6-4.2-1.3a2.7 2.7 0 0 1-1.4-2.4c0-1.8 1.5-3.2 3.9-3.2a5 5 0 0 1 3.8 1.6l-1 .8a3.6 3.6 0 0 0-2.8-1.2c-1.4 0-2.5.7-2.5 1.9 0 1.9 2.7 1.7 4.7 2.5 1.2.4 2 1.5 1.9 2.7 0 2.3-2.1 3.4-4.2 3.4-1.6 0-3.1-.6-4.2-1.8l1.2-.8Zm10.4-1.1c0 1.4 1.1 2.6 2.5 2.7h.1c.8 0 1.6-.3 2.2-.8l.7 1c-.8.7-1.9 1-2.9 1-2.4 0-3.9-1.8-3.9-4.3s1.5-4.3 3.7-4.3 3.5 1.8 3.5 4.3v.4H179Zm0-1.1h4.4c0-1.3-.8-2.4-2.1-2.4a2.3 2.3 0 0 0-2.3 2.4Zm12.1-2.2h-.2c-1.4 0-2.6.6-2.6 2.8v4.2H187v-8.2h1.4v1.3c.5-.9 1.4-1.5 2.5-1.5h.4v1.4h-.2Zm3.5 7-2.6-8.2h1.5l2 7 2-7h1.5l-2.6 8.2h-1.8Zm6.9-11.5c.6 0 1 .4 1 1s-.4 1-1 1-1-.4-1-1 .5-1 1-1Zm.7 11.5h-1.4v-8.2h1.4v8.2Zm3.5-4.1c0 1.6.8 3 2.4 3 .9 0 1.8-.6 2.1-1.4l1.1.6c-.6 1.2-1.9 2-3.2 1.9-2.3 0-3.8-1.8-3.8-4.3s1.5-4.3 3.8-4.3c1.4 0 2.6.7 3.2 1.9l-1.1.6a2.4 2.4 0 0 0-2.1-1.4c-1.6 0-2.4 1.4-2.4 3v.4Zm8.5.4c0 1.4 1.1 2.6 2.5 2.7h.1c.8 0 1.6-.3 2.2-.8l.7 1c-.8.7-1.9 1-2.9 1-2.4 0-3.9-1.8-3.9-4.3s1.5-4.3 3.8-4.3 3.5 1.8 3.5 4.3v.4h-6Zm0-1.1h4.4c0-1.3-.8-2.4-2.1-2.4a2.4 2.4 0 0 0-2.3 2.4Z"/>
    </g>
    <path stroke="#B1B4B6" stroke-dasharray="0 12" stroke-linecap="round" stroke-linejoin="round" stroke-width="6" d="M197 370 0 513m317-153 283-200M197 296 360.5.5M276 390 157 559"/>
    <g fill-rule="nonzero">
      <path fill="#00703C" d="M0 513h157v47H0z"/>
      <path fill="#002E19" d="M0 558h157v2H0z"/>
      <path fill="#FFF" d="M128 528h6.5l10 10-10 10H128l10-10zM13.9 540.3a5.7 5.7 0 0 0 1.8 1.4 6 6 0 0 0 2.7.6c1 0 1.7-.2 2.2-.6.5-.4.8-.9.8-1.5s-.3-1-.7-1.4c-.5-.3-1.2-.5-2.1-.7H18l-2-.6c-.8-.2-1.4-.5-2-.9-.5-.3-1-.8-1.3-1.4a4.5 4.5 0 0 1 1-5.5 6 6 0 0 1 1.9-1.3c.8-.3 1.8-.4 3-.4 1.3 0 2.5.2 3.6.6a8 8 0 0 1 2.6 1.8l-2.3 2.1c-.5-.5-1-.9-1.8-1.2a6 6 0 0 0-2.2-.4c-.9 0-1.6.2-2 .5-.6.3-.8.8-.8 1.3 0 .4 0 .7.2.9l.7.6 1 .3 1.4.4h.3l2 .5c.6.2 1.2.4 1.8.8.5.4 1 .9 1.3 1.5.3.6.5 1.3.5 2.3a5 5 0 0 1-.5 2.2c-.4.6-.8 1.2-1.4 1.7a6 6 0 0 1-2 1 8 8 0 0 1-2.4.3 11.8 11.8 0 0 1-4.2-.8 9 9 0 0 1-2.7-1.9l2.2-2.2Zm18.1 1 .1.4.2.3.4.3h.7a5.1 5.1 0 0 0 .9 0h.4l.3-.1.3 2.8a29.4 29.4 0 0 1-3 .2 4 4 0 0 1-2.5-.7c-.7-.5-1-1.3-1-2.5v-6.7h-2.2v-2.9h2.2V529l3.2-.9v4.4h3.3v2.9H32v6Zm9.4-1.4c-.4 0-.7.2-1 .4-.2.2-.3.5-.3.9s.2.7.5 1c.3.3.7.5 1.3.5.6 0 1-.2 1.4-.5.4-.4.5-.9.5-1.4v-1.3l-2.4.4Zm3 4c-.2 0-.3.2-.5.4l-.7.4a4.5 4.5 0 0 1-2.1.5c-.6 0-1.2 0-1.7-.3a4 4 0 0 1-2.3-2 3 3 0 0 1-.4-1.6c0-1 .3-1.8 1-2.5.6-.6 1.4-1 2.5-1.2l3.6-.5v-.2c0-.6-.1-1-.5-1.4-.3-.3-.9-.5-1.7-.5-.3 0-.6 0-1 .2a12.3 12.3 0 0 0-2.4.8l-1.3-2.4a11.7 11.7 0 0 1 5.2-1.4 5 5 0 0 1 1.7.2 3.7 3.7 0 0 1 2.8 2c.3.5.5 1.2.5 2v5.2c0 .4 0 .7.3.8.1.2.4.4.7.5l-1.4 2.3a3 3 0 0 1-1.4-.4 3 3 0 0 1-1-1Zm12.4-8.3h-.3a6 6 0 0 0-1.3.1 2.6 2.6 0 0 0-1.9 1.5 4 4 0 0 0-.3 1.7v6.1h-3.2v-12.6H53v1.5l.5-.6.8-.6a4.3 4.3 0 0 1 2-.5h.5v3.4Zm6.7 5.7v.4l.2.3.4.3h.7a5.1 5.1 0 0 0 .9 0h.4l.3-.1.3 2.8a29.4 29.4 0 0 1-3 .2 4 4 0 0 1-2.5-.7c-.7-.5-1-1.3-1-2.5v-6.7H58v-2.9h2.2V529l3.3-.9v4.4h3.3v2.9h-3.3v6Zm9.6-8.9h3.3v1.1a5.3 5.3 0 0 1 1.2-.9 4.4 4.4 0 0 1 2-.4l1.8.3a4 4 0 0 1 2.2 2.3c.2.6.3 1.1.3 1.7v8.5h-3.2v-7.3c0-.4 0-.8-.2-1.1a2 2 0 0 0-.4-.8l-.6-.4-.8-.1-1 .1a2 2 0 0 0-.7.6 2 2 0 0 0-.5.9 4 4 0 0 0-.1 1.2v6.9H73v-12.6Zm19-.2c1 0 1.8.2 2.5.5a5.7 5.7 0 0 1 3.2 3.5 7.3 7.3 0 0 1 0 5.2c-.3.7-.7 1.4-1.2 2a5.8 5.8 0 0 1-4.5 1.8c-1 0-1.8-.1-2.5-.5a5.8 5.8 0 0 1-3.2-3.4 7.4 7.4 0 0 1 0-5.2c.3-.7.7-1.4 1.2-2 .6-.6 1.2-1 2-1.4.7-.3 1.6-.5 2.5-.5Zm0 10c.5 0 .9 0 1.2-.2l1-.7.5-1.1.2-1.4v-.1l-.2-1.4c-.1-.4-.3-.8-.6-1.1-.2-.3-.5-.6-.9-.7-.3-.2-.7-.3-1.2-.3s-.9 0-1.2.3c-.4.1-.7.4-1 .7l-.5 1a5 5 0 0 0-.2 1.5l.2 1.5c.2.4.3.8.6 1a2.5 2.5 0 0 0 2.1 1Zm19.7-1.3 1.6-8.4h3.4l-3 12.5H110l-1.8-8.1-2 8h-3.8l-3-12.4h3.6l1.5 8.4 2.2-8.4h3z"/>
    </g>
    <path fill="#FFF" d="M360 0h240v160H360z"/>
    <path fill="#505A5F" fill-rule="nonzero" d="M397 86h136v9H397zm0 19h156v9H397zm0 19h156v9H397z"/>
    <path fill="#1D70B8" fill-rule="nonzero" d="M398 19h148v9H398z"/>
    <path fill="#F3F2F1" d="M397 52h62v22h-62z"/>
    <path fill="#B2B4B6" d="M376 40h5v105h-5z"/>
    <path fill="#1D70B8" d="M376 16h14l-7 12z"/>
    <path fill="#BFE3E0" d="M420 42h62v22h-62z"/>
    <path fill="#11403B" fill-rule="nonzero" d="M432.3 56.3H429l-.6 1.7h-2l3-9.1h2.5l3 9.1h-2l-.6-1.7Zm-2.8-1.6h2.3l-1.1-3.9-1.2 3.9Zm6.7-1.3.3-1.8c.2-.6.5-1 .9-1.5a4 4 0 0 1 3-1.3c.6 0 1 0 1.4.2.4 0 .8.3 1 .5l1 .8.5 1-1.8.6a2.2 2.2 0 0 0-.7-1l-.5-.3a2 2 0 0 0-.8-.2c-.4 0-.8.1-1 .3-.4.2-.6.4-.8.7a3 3 0 0 0-.4 1l-.2 1c0 .5 0 .8.2 1.2 0 .3.2.7.4 1l.7.6c.3.2.7.3 1 .3a2 2 0 0 0 1.4-.5 2.1 2.1 0 0 0 .7-1l1.8.5a4 4 0 0 1-.6 1.1 3.6 3.6 0 0 1-1.9 1.3 4.6 4.6 0 0 1-3-.1 4 4 0 0 1-1.4-1l-.9-1.5c-.2-.6-.3-1.2-.3-1.9Zm9.7-4.5h6.9v1.7h-2.5V58h-2v-7.4H446zm9 0h1.9v9h-2zm6.6 9.1-2.5-9.1h2l1.8 6.9 1.8-7h2L464 58zm7.3-9.1h6v1.7h-4.2v1.9h4v1.7h-4v2.2h4.6V58h-6.4z"/>
    <path fill="#1B4B80" fill-rule="nonzero" d="M511.4 502h25.2l3.4 4h-32z"/>
    <path fill="#ED3B1F" d="m472 380 24 36h-48z"/>
    <path fill="#F86A54" d="M472 380h52l-28 36z"/>
    <path fill="#ED3B1F" d="M524 380h52l-24 36z"/>
    <path fill="#99220F" d="m524 380 28 36h-56z"/>
    <path fill="#801C0D" d="m524 504 76-88h-48z"/>
    <path fill="#F86A54" d="m524 504-28-88h-48z"/>
    <path fill="#CC3F29" d="m524 504 28-88h-56zm52-124 24 36h-48z"/>
  </g>
</svg>
