<svg xmlns="http://www.w3.org/2000/svg" width="600" height="540">
  <g fill="none" fill-rule="evenodd">
    <g fill-rule="nonzero">
      <path fill="#323232" stroke="#0B0C0C" stroke-width="6" d="M10 60h198v163H10z"/>
      <path fill="#B1B4B6" d="M55.6 90 35.3 78.4c-.4-.2-.8-.4-1.2-.4a2 2 0 0 0-2 2c0 .9.5 1.6 1.3 2l15.8 9-16 9.1a2 2 0 0 0-1.2 2c0 1 .9 1.9 2 1.9.4 0 .9-.2 1.2-.4l20.3-11.7c.5-.3.6-1 .4-1.5 0-.2-.2-.3-.3-.4Zm30.8 24.5c-.5-.4-1.1-.6-1.7-.5H59.2c-.6 0-1.2.1-1.6.5-.8.7-.8 2 0 2.9.5.5 1 .7 1.6.6h25.5c.6 0 1.2-.1 1.7-.5a2 2 0 0 0 0-3Z"/>
    </g>
    <path fill="#1E1E1E" fill-rule="nonzero" d="M133.4 428.8V187c0-5.4 3.6-9 9-9h334c5.6 0 9.1 3.5 9.1 9v242"/>
    <path fill="#EDEDED" fill-rule="nonzero" d="M486 428.8h-1V187c0-5-3.5-8.5-8.5-8.5h-334c-5 0-8.5 3.5-8.5 8.5v241.8h-1V187c0-5.5 4-9.5 9.5-9.5h334c5.5 0 9.5 4 9.5 9.5v241.8Z"/>
    <path fill="#2B8CC4" fill-rule="nonzero" d="M143.4 184h332a4 4 0 0 1 4 4v225.5h-340V188a4 4 0 0 1 4-4Z"/>
    <path fill="#0B0C0C" fill-rule="nonzero" d="M480 414H139V187.5a4 4 0 0 1 4-4h333a4 4 0 0 1 4 4V414Zm-340-1h339V187.5a3 3 0 0 0-3-3H143a3 3 0 0 0-3 3V413Z"/>
    <path fill="#808283" fill-rule="nonzero" d="M270 419.5h79v14h-79z"/>
    <path fill="#B1B4B6" fill-rule="nonzero" d="M341 428h-64c-3.8 0-7-4.1-7.3-8H81v16a8 8 0 0 0 8 8h440a8 8 0 0 0 8-8l-.1-16H348.3c-.3 4.1-3.4 8-7.3 8Z"/>
    <path fill="#A5A9AB" fill-rule="nonzero" d="M81 434v2a8 8 0 0 0 8 8h440a8 8 0 0 0 8-8l-.1-2a8.5 8.5 0 0 1-5.5 2H87c-2.1 0-4.2-.7-5.9-2Z"/>
    <path stroke="#EDEDED" d="M537 420H348.4c-.2 4.1-3.3 8-7.3 8H277c-3.8 0-7-4.1-7.3-8H81"/>
    <path fill="#1A345C" fill-rule="nonzero" d="M106 446h406l20 4H86z"/>
    <path fill="#505A5F" fill-rule="nonzero" d="m108.4 444 5.7 3h38.6l5.7-3zm352 0 5.7 3h38.6l5.7-3z"/>
    <path fill="#FFF" fill-rule="nonzero" stroke="#0B0C0C" stroke-width="2" d="M180 215h258v168H180z"/>
    <path fill="#0B0C0C" fill-rule="nonzero" d="M180 215h258v28H180z"/>
    <path fill="#B1B4B6" d="M197 257h142v9H197z"/>
    <path fill="#F3F2F1" fill-rule="nonzero" d="M197 350h89v18h-89v-18Zm0-74h120v64H197v-64Z"/>
    <path fill="#FFF" fill-rule="nonzero" d="M198.6 232.4c.8 1 2 1.5 3.3 1.5 1.4 0 2.6-.7 2.6-2.1 0-.7-.4-1.4-1.1-1.6-1.1-.5-3-.6-4.2-1.3a2.7 2.7 0 0 1-1.4-2.4c0-1.8 1.5-3.2 3.9-3.2a5 5 0 0 1 3.8 1.6l-1 .8a3.6 3.6 0 0 0-2.8-1.2c-1.4 0-2.5.7-2.5 1.9 0 1.9 2.7 1.7 4.7 2.5 1.2.4 2 1.5 1.9 2.7 0 2.3-2.1 3.4-4.2 3.4-1.6 0-3.1-.6-4.2-1.8l1.2-.8Zm10.4-1.1c0 1.4 1.1 2.6 2.5 2.7h.1c.8 0 1.6-.3 2.2-.8l.7 1c-.8.7-1.9 1-2.9 1-2.4 0-3.9-1.8-3.9-4.3s1.5-4.3 3.7-4.3 3.5 1.8 3.5 4.3v.4H209Zm0-1.1h4.4c0-1.3-.8-2.4-2.1-2.4a2.3 2.3 0 0 0-2.3 2.4Zm12.1-2.2h-.2c-1.4 0-2.6.6-2.6 2.8v4.2H217v-8.2h1.4v1.3c.5-.9 1.4-1.5 2.5-1.5h.4v1.4h-.2Zm3.5 7-2.6-8.2h1.5l2 7 2-7h1.5l-2.6 8.2h-1.8Zm6.9-11.5c.6 0 1 .4 1 1s-.4 1-1 1-1-.4-1-1 .5-1 1-1Zm.7 11.5h-1.4v-8.2h1.4v8.2Zm3.5-4.1c0 1.6.8 3 2.4 3 .9 0 1.8-.6 2.1-1.4l1.1.6c-.6 1.2-1.9 2-3.2 1.9-2.3 0-3.8-1.8-3.8-4.3s1.5-4.3 3.8-4.3c1.4 0 2.6.7 3.2 1.9l-1.1.6a2.4 2.4 0 0 0-2.1-1.4c-1.6 0-2.4 1.4-2.4 3v.4Zm8.5.4c0 1.4 1.1 2.6 2.5 2.7h.1c.8 0 1.6-.3 2.2-.8l.7 1c-.8.7-1.9 1-2.9 1-2.4 0-3.9-1.8-3.9-4.3s1.5-4.3 3.8-4.3 3.5 1.8 3.5 4.3v.4h-6Zm0-1.1h4.4c0-1.3-.8-2.4-2.1-2.4a2.4 2.4 0 0 0-2.3 2.4Z"/>
    <path stroke="#009FE3" stroke-dasharray="0 12" stroke-linecap="round" stroke-linejoin="round" stroke-width="6" d="M197 350 0 500m317-160 283-211M197 276 360.5.5M286 368 175 498"/>
    <g fill-rule="nonzero">
      <path fill="#00703C" d="M0 500h175v38H0z"/>
      <path fill="#002E19" d="M0 536h175v2H0z"/>
      <path fill="#FFF" d="M13.8 522c.6.6 1.2 1 1.9 1.3a5.3 5.3 0 0 0 3.4.3 3 3 0 0 0 1-.5l.7-.8.2-1c0-.4-.1-.7-.3-1-.2-.3-.4-.5-.7-.6a33.3 33.3 0 0 0-2.3-.7h-.2a146.6 146.6 0 0 1-2.7-.9 3 3 0 0 1-.8-.5l-.7-1a3.3 3.3 0 0 1 .8-3.9 6.1 6.1 0 0 1 3.7-1.2 6.6 6.6 0 0 1 3.5 1l1 .8-1.3 1a4 4 0 0 0-1.6-1 5.2 5.2 0 0 0-3-.2l-1 .5-.5.7-.2.8c0 .4 0 .8.3 1 .1.3.4.5.7.6l1 .4 1.1.3h.1l1.8.4 1.5.7c.4.3.8.6 1 1 .3.5.4 1 .4 1.8a3.6 3.6 0 0 1-1.2 2.7l-1.5.9c-.6.2-1.3.3-2.2.3a7.2 7.2 0 0 1-5.2-2.2l1.3-1Zm16.4 2c-.2.4-.6.6-1 .9a4 4 0 0 1-1.8.3c-.4 0-.9 0-1.3-.2a2 2 0 0 1-1-.6 2.6 2.6 0 0 1-1-2l.2-1.1a2.4 2.4 0 0 1 1.3-1.4l1-.3 3.4-.4v-.6c0-.4 0-.7-.2-1 0-.2-.2-.4-.4-.5l-.7-.3-.8-.1c-.5 0-1 0-1.5.2l-1.2.5-.6-1.2 1.7-.7a8 8 0 0 1 1.8-.2 4 4 0 0 1 2.6.8c.6.5.9 1.3.9 2.3v4.4c0 .3 0 .6.2.8 0 .2.3.3.6.5l-1 1a1 1 0 0 1-.7-.3c-.2-.2-.4-.4-.4-.7Zm-2.7-3.2-.7.1-.6.3a1.2 1.2 0 0 0-.5 1c0 .3 0 .6.2.8l.4.5.7.4h1.6l.7-.4.5-.5c.2-.2.2-.5.2-.8v-1.8l-2.5.4Zm8.8 4.2-3-9.5h1.8l2.3 8 2.2-8h1.8l-3 9.5zm7.9-4.3c0 .5 0 .9.2 1.3l.7 1a2.7 2.7 0 0 0 2 .8c.5 0 1 0 1.4-.2a5 5 0 0 0 1.1-.7l.8 1.1c-.4.4-1 .6-1.5.9a5.1 5.1 0 0 1-3.7 0c-.6-.3-1-.7-1.4-1.1-.4-.4-.7-1-1-1.6a6 6 0 0 1-.3-2c0-.7.1-1.3.4-2l.8-1.5a4 4 0 0 1 3.1-1.4c.7 0 1.2.2 1.7.4s1 .6 1.3 1a6 6 0 0 1 1.1 3.6v.4h-6.7Zm2.6-4a2.3 2.3 0 0 0-1.9.9 3.5 3.5 0 0 0-.7 2l5-.1c0-.4 0-.7-.2-1 0-.4-.3-.7-.5-1l-.7-.6-1-.2Zm15.5 7.3c-.3.4-.7.6-1.2.9a4 4 0 0 1-1.6.3c-.5 0-1 0-1.3-.2-.4-.1-.8-.3-1-.6a2.6 2.6 0 0 1-1-2c0-.5 0-.8.2-1.1a2.4 2.4 0 0 1 1.3-1.4l1-.3 3.3-.4v-.6l-.1-1-.5-.5-.6-.3-.9-.1c-.5 0-1 0-1.5.2l-1.2.5-.6-1.2 1.7-.7a8 8 0 0 1 1.8-.2 4 4 0 0 1 2.6.8c.6.5.9 1.3.9 2.3v4.4c0 .3 0 .6.2.8l.6.5-.9 1c-.3 0-.6-.1-.8-.3l-.4-.7Zm-2.8-3.2-.7.1-.6.3a1.2 1.2 0 0 0-.4 1l.1.8.4.5.7.4h1.6l.7-.4.5-.5c.2-.2.2-.5.2-.8v-1.8l-2.5.4Zm6.9-5.3H68v1.1a3 3 0 0 1 1.2-1 4 4 0 0 1 3 0 2.8 2.8 0 0 1 1.5 1.7c.2.4.2.8.2 1.3v6.4h-1.5v-6c0-.4 0-.7-.2-1a2 2 0 0 0-.4-.7l-.6-.4-.8-.1a2.5 2.5 0 0 0-1.6.6c-.3.2-.5.5-.6.8l-.2 1.2v5.6h-1.6v-9.5ZM83 524c-.3.3-.7.6-1.2.8a3 3 0 0 1-1.6.4 3.7 3.7 0 0 1-3-1.4l-.8-1.6c-.2-.6-.2-1.2-.2-2 0-.6 0-1.3.2-2l.8-1.5c.4-.4.8-.8 1.3-1 .5-.2 1-.4 1.7-.4a3 3 0 0 1 1.6.4c.5.2.9.5 1.2.9v-4.9h1.5V525H83v-1Zm-5.2-3.7.1 1.4c.2.4.3.8.6 1.1.2.3.5.6.8.7.3.2.7.3 1.2.3.4 0 .7 0 1-.2.4-.2.6-.3.8-.6.3-.2.4-.5.5-.9l.2-1v-1.6c0-.4 0-.8-.2-1.1 0-.3-.2-.6-.5-.9l-.7-.6-1.1-.2a2.4 2.4 0 0 0-2 1c-.3.3-.4.7-.6 1.1l-.1 1.4v.1Zm14.4 0c0 .5 0 1 .2 1.4l.5 1c.2.4.5.7.9.8.3.2.7.3 1.2.3a2.6 2.6 0 0 0 2-1c.2-.1.3-.4.4-.6l1.3.8a3.8 3.8 0 0 1-2.5 2 4.6 4.6 0 0 1-3-.2 4 4 0 0 1-1.4-1c-.4-.4-.7-1-.9-1.6a6 6 0 0 1-.3-2c0-.7.1-1.3.3-2l.9-1.5a4 4 0 0 1 3.2-1.4 4.6 4.6 0 0 1 2.2.6 3.8 3.8 0 0 1 1.5 1.7l-1.3.7-.4-.6a2.7 2.7 0 0 0-1.2-.9l-.8-.1a2.5 2.5 0 0 0-2 1c-.3.4-.5.7-.6 1.2a5 5 0 0 0-.2 1.3v.1Zm12.4-5c.6 0 1.2.2 1.8.4.5.2 1 .6 1.4 1l.8 1.6c.3.6.4 1.2.4 2a6 6 0 0 1-.4 2l-.8 1.5a4 4 0 0 1-3.2 1.4c-.7 0-1.3-.1-1.8-.4a4 4 0 0 1-1.4-1c-.4-.4-.7-1-.9-1.6a6 6 0 0 1-.3-2c0-.7.1-1.3.3-2 .2-.5.5-1 1-1.5a4 4 0 0 1 3-1.4Zm0 8.5a2.4 2.4 0 0 0 2-1c.3-.3.4-.7.6-1.1l.1-1.4-.1-1.4-.6-1.2-.8-.7-1.2-.3a2.4 2.4 0 0 0-2 1c-.3.4-.5.7-.6 1.2a5 5 0 0 0-.2 1.3v.1c0 .5 0 1 .2 1.4l.5 1c.3.4.6.7.9.8.3.2.7.3 1.2.3Zm6.6-8.3h1.6v1.1a3 3 0 0 1 1.2-1 4 4 0 0 1 3 0 2.8 2.8 0 0 1 1.5 1.7c.2.4.2.8.2 1.3v6.4h-1.5v-6c0-.4 0-.7-.2-1a2 2 0 0 0-.4-.7l-.6-.4-.8-.1a2.5 2.5 0 0 0-1.6.6c-.3.2-.4.5-.6.8l-.2 1.2v5.6h-1.6v-9.5Zm12.8 7.1v.5c0 .1 0 .3.2.4l.3.2.7.1a4.5 4.5 0 0 0 .6 0 5.2 5.2 0 0 0 .6-.1l.1 1.4a13.8 13.8 0 0 1-1.7 0 4 4 0 0 1-1 0 2 2 0 0 1-.7-.4c-.3-.2-.4-.4-.5-.7l-.2-1v-6.1h-1.8v-1.4h1.8v-3l1.6-.6v3.6h2.6v1.4H124v5.7Zm6 2.4h-1.5v-9.5h1.6v9.5Zm-1.8-12.2.1-.4c0-.2.2-.3.3-.4a1 1 0 0 1 .7-.3h.4l.4.3.2.4.1.4v.4a1.1 1.1 0 0 1-.7.6 1 1 0 0 1-.8 0 1.1 1.1 0 0 1-.6-.6v-.4Zm4.8 2.7h1.5v1.1a3 3 0 0 1 1.2-1 4 4 0 0 1 3 0 2.8 2.8 0 0 1 1.5 1.7c.2.4.2.8.2 1.3v6.4H139v-6c0-.4 0-.7-.2-1a2 2 0 0 0-.4-.7l-.6-.4-.8-.1a2.5 2.5 0 0 0-1.6.6c-.3.2-.4.5-.6.8l-.2 1.2v5.6H133v-9.5Zm17.6 9.5h-1.5v-1c-.3.4-.7.7-1.2.9a4 4 0 0 1-3 0 2.8 2.8 0 0 1-1.6-1.7l-.2-1.2v-6.5h1.6v6l.1 1c.1.3.3.6.5.7.1.2.3.4.6.4l.8.2c.3 0 .6 0 .9-.2a2.2 2.2 0 0 0 1.3-1.3l.2-1.2v-5.6h1.5v9.5Zm4-4.3c0 .5 0 .9.2 1.3l.6 1a2.7 2.7 0 0 0 2.1.8c.5 0 1 0 1.4-.2a5 5 0 0 0 1-.7l.9 1.1c-.4.4-1 .6-1.5.9a5.1 5.1 0 0 1-3.7 0c-.6-.3-1-.7-1.5-1.1a6 6 0 0 1-.9-1.6 6 6 0 0 1-.3-2c0-.7.1-1.3.3-2 .2-.5.5-1 1-1.5a4 4 0 0 1 3-1.4c.6 0 1.2.2 1.7.4s1 .6 1.3 1l.8 1.6c.2.6.3 1.2.3 2v.4h-6.7Zm2.6-4a2.3 2.3 0 0 0-1.9.9 3.5 3.5 0 0 0-.7 2l5-.1c0-.4 0-.7-.2-1l-.5-1-.7-.6-1-.2Z"/>
    </g>
    <path fill="#FFF" d="M360 0h240v128H360z"/>
    <path fill="#B1B4B6" fill-rule="nonzero" d="M436 88h96v9h-96v-9Zm0-57h148v9H436v-9Z"/>
    <g fill-rule="nonzero" transform="translate(378 72)">
      <circle cx="20" cy="20" r="20" fill="#FFF"/>
      <path fill="#0B0C0C" d="M20 4a16 16 0 0 1 16 16 16 16 0 0 1-16 16A16 16 0 0 1 4 20 16 16 0 0 1 20 4m0-4C9 0 0 9 0 20s9 20 20 20 20-9 20-20S31 0 20 0Z"/>
    </g>
    <g fill-rule="nonzero" transform="translate(374 12)">
      <circle cx="24" cy="24" r="20" fill="#FFF"/>
      <path fill="#0B0C0C" d="M24 8a16 16 0 0 1 16 16 16 16 0 0 1-16 16A16 16 0 0 1 8 24 16 16 0 0 1 24 8m0-4C13 4 4 13 4 24s9 20 20 20 20-9 20-20S35 4 24 4Z"/>
      <path fill="#FD0" d="M24 4c11 0 20 9 20 20s-9 20-20 20S4 35 4 24 13 4 24 4m0-4a24 24 0 1 0 0 48 24 24 0 1 0 0-48Z"/>
      <circle cx="24" cy="24" r="10" fill="#0B0C0C"/>
    </g>
  </g>
</svg>
